# xmcd
#
# Track frame offsets:
#	150
#	19840
#	34626
#	60139
#	78110
#	96574
#	113157
#	128512
#	155948
#	174387
#	191939
#	211947
#	225996
#	245945
#	269838
# Disc length: 3757 seconds
# Revision: 2
# Processed by: cddbd v1.5.2PL0 Copyright (c) Steve Scherf et al.
#
# Submitted via: libkcddb 0.31
#
DISCID=cc0eab0f
DTITLE=Vari - Latino! 11
DYEAR=2006
DGENRE=Salsa
TTITLE0=Gilberto Santarosa and Victor Manuelle - Dos Soneros Una Historia
TTITLE1=Jimmy Bauer - Por Ti
TTITLE2=Manolito y su Trabuco - Comunicate
TTITLE3=Jeffrey - Si Yo Me Vuelvo A Enamorar
TTITLE4=Haila - Quien Fué
TTITLE5=Oscar D'Leon - Lloraras
TTITLE6=Arnaldo y su Talisman - Pa' Mi No Hay Carfé
TTITLE7=Juan formelly Los Van Van - Despés De Todo
TTITLE8=Kinito Mendez - La Perdì-iiisimo
TTITLE9=Edgar Daniel - Me Extranaras
TTITLE10=N'Klabe feat. Voltio - Amor De Una Noche
TTITLE11=Joe Arroyo y la Verdad - El Conquero
TTITLE12=Milly Quezada - Quiero Ser
TTITLE13=Adalberto Alvarez - Leccion De Amor
TTITLE14=Chico Rap - A Ti Te Gustan Los Italianos
EXTD=PlanetRecords
EXTT0=
EXTT1=
EXTT2=
EXTT3=
EXTT4=
EXTT5=
EXTT6=
EXTT7=
EXTT8=
EXTT9=
EXTT10=
EXTT11=
EXTT12=
EXTT13=
EXTT14=
PLAYORDER=
